# xmcd
#
# Track frame offsets: 
#        150
#        15195
#        29194
#        48065
#        59995
#
# Disc length: 1124 seconds
#
# Revision: 4
# Processed by: cddbd v1.5.2PL0 Copyright (c) Steve Scherf et al.
# Submitted via: ExactAudioCopyFreeDBPlugin 1.0
#
DISCID=3d046205
DTITLE=NET - ドキッと!ビキニパイ BIG BONUS MUSIC
DYEAR=2009
DGENRE=Game
TTITLE0=み～こ - ドキッと!ビキニパイ
TTITLE1=み～こ - 恋つくりませんか?
TTITLE2=NET SOUND PROJECT - 真夏に降る雪
TTITLE3=み～こ - ふりむいて笑って
TTITLE4=み～こ - ドキッと!ビキニパイ(日本の武道館Mix)
EXTD=YEAR: 2009
EXTT0=
EXTT1=
EXTT2=
EXTT3=
EXTT4=
PLAYORDER=
